<svg xmlns="http://www.w3.org/2000/svg" width="10" height="10" viewBox="0 0 10 10">
  <g id="Grupo_64" data-name="Grupo 64" transform="translate(-761 -299)">
    <circle id="Elipse_9" data-name="Elipse 9" cx="5" cy="5" r="5" transform="translate(761 299)" fill="#fc424a"/>
    <path id="Icon_metro-bin" data-name="Icon metro-bin" d="M4.732,3.093V5.424a.234.234,0,0,0,.233.233h2.1A.234.234,0,0,0,7.3,5.424V3.093Zm.7,2.1H5.2V3.56h.233Zm.466,0H5.664V3.56H5.9Zm.466,0H6.13V3.56h.233Zm.466,0H6.6V3.56h.233Zm.524-2.8H6.6V2.1a.175.175,0,0,0-.175-.175H5.606a.175.175,0,0,0-.175.175v.291H4.674a.175.175,0,0,0-.175.175V2.86h3.03V2.569a.175.175,0,0,0-.175-.175Zm-.991,0h-.7v-.23h.7v.23Z" transform="translate(759.986 300.207)"/>
  </g>
</svg>
